<svg xmlns="http://www.w3.org/2000/svg" width="19" height="11" viewBox="0 0 19 11">
  <defs>
    <style>
      .cls-1 {
        fill: #fff;
        fill-rule: evenodd;
      }
    </style>
  </defs>
  <path id="icon--eye.svg" class="cls-1" d="M1802.8,1670.01a11.586,11.586,0,0,1,10.2,5.28c-3.05,4.97-8.59,6.97-13.49,4.93a11.571,11.571,0,0,1-4.92-3.96,3.784,3.784,0,0,1-.59-1.12A11.981,11.981,0,0,1,1802.8,1670.01Zm0.19,1.4a10.508,10.508,0,0,1,8.41,3.96c-4.12,5.56-11.77,5.65-15.87,0A10.624,10.624,0,0,1,1802.99,1671.41Zm0.07,0.22c3.22-.36,4.58,3.82,2.96,6.34a2.945,2.945,0,0,1-5.08.03C1799.45,1675.69,1800.49,1671.92,1803.06,1671.63Zm-0.3,2.3c0.51,0.43.94,0.63,1.38-.03a1.983,1.983,0,0,1-.16,3.35C1802.13,1677.97,1801.15,1674.93,1802.76,1673.93Zm1.38-.03c-0.44.66-.87,0.46-1.38,0.03A1.319,1.319,0,0,1,1804.14,1673.9Z" transform="translate(-1794 -1670)"/>
</svg>
