<svg xmlns="http://www.w3.org/2000/svg" width="19" height="13.75" viewBox="0 0 19 13.75">
  <defs>
    <style>
      .cls-1 {
        fill: #fff;
        fill-rule: evenodd;
      }
    </style>
  </defs>
  <path id="icon--eye-crossed.svg" class="cls-1" d="M7.342,12.792l1.189-1.268A9.839,9.839,0,0,0,17.4,7.373a9.384,9.384,0,0,0-2.715-2.411l0.984-1.049A10.244,10.244,0,0,1,19,7.287C16.326,11.65,11.735,13.718,7.342,12.792Zm3.319-9.28a8.336,8.336,0,0,0-1.669-.1A10.614,10.614,0,0,0,1.529,7.373a10.511,10.511,0,0,0,2.9,2.728L3.5,11.083A11.216,11.216,0,0,1,.586,8.26,3.7,3.7,0,0,1,0,7.144,11.964,11.964,0,0,1,8.8,2.009a10.5,10.5,0,0,1,3.018.282Zm-1.6.119a3.058,3.058,0,0,1,1.35.144L6.291,8.13C6.05,6.064,7.114,3.852,9.062,3.631Zm-0.353,7.7L12.68,7.1a4.585,4.585,0,0,1-.663,2.87A2.992,2.992,0,0,1,8.709,11.334ZM14.715,0.648l1.458,1.369L4.539,14.412,3.08,13.043Z" transform="translate(0 -0.656)"/>
</svg>
