<svg id="icon--settings.svg" xmlns="http://www.w3.org/2000/svg" width="19" height="19" viewBox="0 0 19 19">
  <defs>
    <style>
      .cls-2 {
        fill-rule: evenodd;
        fill: #fff;
      }
    </style>
  </defs>
  <path class="cls-2" d="M244,86.5h-1.112a4.49,4.49,0,0,1-.584,1.389l0.792,0.793a1,1,0,1,1-1.414,1.414l-0.791-.791a4.419,4.419,0,0,1-1.391.586V91a1,1,0,0,1-2,0V89.884a4.444,4.444,0,0,1-1.381-.589l-0.8.8a1,1,0,1,1-1.414-1.414l0.807-.807a4.479,4.479,0,0,1-.575-1.375H233a1,1,0,0,1,0-2h1.14a4.477,4.477,0,0,1,.578-1.368l-0.814-.814a1,1,0,1,1,1.414-1.414l0.811,0.811a4.433,4.433,0,0,1,1.371-.583V80a1,1,0,0,1,2,0v1.125a4.423,4.423,0,0,1,1.381.58l0.8-.8a1,1,0,1,1,1.414,1.414l-0.8.8a4.487,4.487,0,0,1,.587,1.383H244A1,1,0,0,1,244,86.5ZM238.5,83a2.5,2.5,0,1,0,2.5,2.5A2.5,2.5,0,0,0,238.5,83Z" transform="translate(-229 -76)"/>
</svg>
