<svg id="icon--exact-match.svg" xmlns="http://www.w3.org/2000/svg" width="19" height="19" viewBox="0 0 19 19">
  <defs>
    <style>
      .cls-1 {
        fill-rule: evenodd;
        fill: #fff;
      }
    </style>
  </defs>
  <path class="cls-1" d="M212.919,88.6V85.54a3.322,3.322,0,0,1,.19-1.24,3.242,3.242,0,0,1,2.65-2.12V83.5a1.768,1.768,0,0,0-1.04.77,2.563,2.563,0,0,0-.28,1.25h1.32V88.6h-2.84Zm4.26,0V85.54a3.322,3.322,0,0,1,.19-1.24,3.242,3.242,0,0,1,2.65-2.12V83.5a1.768,1.768,0,0,0-1.04.77,2.563,2.563,0,0,0-.28,1.25h1.32V88.6h-2.84Z" transform="translate(-207 -76)"/>
</svg>
