<svg xmlns="http://www.w3.org/2000/svg" width="9" height="7" viewBox="0 0 9 7">
  <defs>
    <style>
      .cls-1 {
        fill: #295fcc;
        fill-rule: evenodd;
      }
    </style>
  </defs>
  <path id="icon--checkbox-checkmark.svg" class="cls-1" d="M2282.35,2265.67a1.052,1.052,0,0,1-1.53,0c-0.42-.43-2.09-2.15-2.52-2.59a1.123,1.123,0,0,1,0-1.56,1.052,1.052,0,0,1,1.53,0c0.26,0.26.98,1,1.6,1.64,0.2-.19,3.29-3.43,3.72-3.86a1.04,1.04,0,0,1,1.52,0,1.136,1.136,0,0,1,0,1.57C2286.25,2261.3,2282.77,2265.24,2282.35,2265.67Z" transform="translate(-2278 -2259)"/>
</svg>
