<svg xmlns="http://www.w3.org/2000/svg" width="19" height="11" viewBox="0 0 19 11">
  <defs>
    <style>
      .cls-1 {
        fill: #aaaeb3;
        fill-rule: evenodd;
      }
    </style>
  </defs>
  <path id="icon--eye-gray.svg" class="cls-1" d="M1986.8,393.008a11.576,11.576,0,0,1,10.2,5.279c-3.05,4.976-8.59,6.969-13.49,4.936a11.654,11.654,0,0,1-4.92-3.963,3.6,3.6,0,0,1-.58-1.116A11.954,11.954,0,0,1,1986.8,393.008Zm0.19,1.4a10.5,10.5,0,0,1,8.41,3.963c-4.12,5.558-11.77,5.649-15.87,0A10.62,10.62,0,0,1,1986.99,394.41Zm0.07,0.221c3.22-.366,4.58,3.819,2.96,6.338a2.948,2.948,0,0,1-5.08.036C1983.45,398.689,1984.49,394.923,1987.06,394.631Zm-0.3,2.3c0.51,0.431.94,0.628,1.38-.028a1.98,1.98,0,0,1-.16,3.347C1986.13,400.973,1985.15,397.926,1986.76,396.928Zm1.38-.028c-0.44.656-.87,0.459-1.38,0.028A1.321,1.321,0,0,1,1988.14,396.9Z" transform="translate(-1978 -393)"/>
</svg>
