<svg xmlns="http://www.w3.org/2000/svg" width="14" height="11" viewBox="0 0 14 11">
  <defs>
    <style>
      .cls-1 {
        fill: #fff;
        fill-rule: evenodd;
      }
    </style>
  </defs>
  <path id="icon--folder.svg" class="cls-1" d="M2.6,3A1.768,1.768,0,0,0,1.244,4.4L0.084,8.6a1.921,1.921,0,0,0-.066.486C0.015,9.056,0,9.031,0,9V1A1,1,0,0,1,1,0H4A1,1,0,0,1,5,1h6a1,1,0,0,1,1,1V3H2.6Zm1,1h9.727c0.536,0,.8.627,0.583,1.4L12.75,9.6A1.768,1.768,0,0,1,11.394,11H1.667c-0.536,0-.8-0.627-0.583-1.4l1.16-4.2A1.768,1.768,0,0,1,3.6,4Z"/>
</svg>
