<svg id="icon--info-mini.svg" xmlns="http://www.w3.org/2000/svg" width="17" height="17" viewBox="0 0 17 17">
  <defs>
    <style>
      .cls-1 {
        fill-rule: evenodd;
        fill: #fff;
      }
    </style>
  </defs>
    <path id="icon--info-mini" class="cls-1" d="M1993.39,522.9a1.2,1.2,0,0,0-.35.864,1.171,1.171,0,0,0,.36.863,1.2,1.2,0,0,0,1.71,0,1.171,1.171,0,0,0,.36-0.863,1.2,1.2,0,0,0-.35-0.864,1.19,1.19,0,0,0-.87-0.357A1.168,1.168,0,0,0,1993.39,522.9Zm0.88,3.462-2.82.456-0.1.332c0.11,0,.21-0.008.29-0.008a0.642,0.642,0,0,1,.44.141,0.433,0.433,0,0,1,.15.324,3.384,3.384,0,0,1-.16.863l-1.16,3.968a3,3,0,0,0-.14.78,1.024,1.024,0,0,0,.32.768,1.21,1.21,0,0,0,.86.3q1.41,0,2.67-2.183l-0.29-.166a4.82,4.82,0,0,1-.89,1.112,0.446,0.446,0,0,1-.28.125,0.217,0.217,0,0,1-.16-0.079,0.25,0.25,0,0,1-.08-0.17,3.546,3.546,0,0,1,.14-0.664l1.71-5.9h-0.5Z" transform="translate(-1985 -520)"/>
</svg>
