<svg xmlns="http://www.w3.org/2000/svg" width="14.563" height="13.312" viewBox="0 0 14.563 13.312">
  <defs>
    <style>
      .cls-1 {
        fill: #fff;
        fill-rule: evenodd;
      }
    </style>
  </defs>
  <path id="icon--key-01.svg" class="cls-1" d="M13.611,8.351A4.583,4.583,0,0,1,10.9,9.667,4.343,4.343,0,0,1,8.028,9l-5.15,5.151-2.47-2.47,1.273-1.273,1.236,1.236L4.19,10.369,2.954,9.134,4.227,7.861,5.462,9.1,6.8,7.763a4.32,4.32,0,0,1-.7-2.341,4.53,4.53,0,0,1,.675-2.388,4.628,4.628,0,0,1,1.836-1.7,4.5,4.5,0,0,1,2.43-.48,4.3,4.3,0,0,1,2.271.885A4.245,4.245,0,0,1,14.721,3.72a4.4,4.4,0,0,1,.111,2.456,4.6,4.6,0,0,1-1.22,2.176h0ZM8.673,3.412a2.757,2.757,0,0,0-.75,1.374A2.642,2.642,0,0,0,8.05,6.322,2.546,2.546,0,0,0,9.013,7.5a2.6,2.6,0,0,0,1.472.427,2.728,2.728,0,0,0,1.486-.471,2.779,2.779,0,0,0,1-1.21,2.684,2.684,0,0,0,.175-1.541,2.559,2.559,0,0,0-1.562-1.917A2.614,2.614,0,0,0,10.567,2.6a2.7,2.7,0,0,0-1.022.218,2.774,2.774,0,0,0-.872.59h0Z" transform="translate(-0.406 -0.844)"/>
</svg>
