<svg xmlns="http://www.w3.org/2000/svg" width="9" height="12" viewBox="0 0 9 12">
  <defs>
    <style>
      .cls-1 {
        fill: #aaaaac;
        fill-rule: evenodd;
      }
    </style>
  </defs>
  <path id="icon--download.svg" class="cls-1" d="M980.727,468.954l-3.644,3.772a0.83,0.83,0,0,1-1.191,0l-3.643-3.772a0.876,0.876,0,0,1,0-1.219,0.83,0.83,0,0,1,1.191,0l1.954,2.024V464a1,1,0,0,1,1-1h0.243a1,1,0,0,1,1,1v5.7l1.9-1.966a0.831,0.831,0,0,1,1.192,0A0.878,0.878,0,0,1,980.727,468.954ZM972.5,474h8a0.5,0.5,0,0,1,0,1h-8A0.5,0.5,0,0,1,972.5,474Z" transform="translate(-972 -463)"/>
</svg>
