<svg id="icon--casing.svg" xmlns="http://www.w3.org/2000/svg" width="19" height="19" viewBox="0 0 19 19">
  <defs>
    <style>
      .cls-2 {
        fill-rule: evenodd;
        fill: #fff;
      }
    </style>
  </defs>
  <path class="cls-2" d="M192.424,86.387l-0.9-2.62H191.5l-0.93,2.62h1.85Zm-0.09-4.38,2.67,7.14h-1.63l-0.54-1.59h-2.67l-0.56,1.59h-1.58l2.7-7.14h1.61Zm4.5,3.56a0.8,0.8,0,0,1,.28-0.6,1.078,1.078,0,0,1,.66-0.18,2.379,2.379,0,0,1,.355.025,0.785,0.785,0,0,1,.29.1,0.547,0.547,0,0,1,.2.21,0.754,0.754,0,0,1,.075.365,0.381,0.381,0,0,1-.13.335,0.956,0.956,0,0,1-.38.175,3.781,3.781,0,0,1-.55.09q-0.309.03-.63,0.08a6.029,6.029,0,0,0-.635.135,1.8,1.8,0,0,0-.56.255,1.306,1.306,0,0,0-.4.455,1.511,1.511,0,0,0-.155.725,1.623,1.623,0,0,0,.135.69,1.3,1.3,0,0,0,.375.48,1.582,1.582,0,0,0,.56.28,2.547,2.547,0,0,0,.69.09,3.209,3.209,0,0,0,.94-0.14,1.844,1.844,0,0,0,.8-0.49,2.356,2.356,0,0,0,.035.255,2.239,2.239,0,0,0,.065.245h1.44a1.227,1.227,0,0,1-.14-0.48,5.533,5.533,0,0,1-.04-0.67v-2.69a1.244,1.244,0,0,0-.21-0.755,1.439,1.439,0,0,0-.54-0.445,2.417,2.417,0,0,0-.73-0.215,5.8,5.8,0,0,0-.79-0.055,4.364,4.364,0,0,0-.855.085,2.448,2.448,0,0,0-.765.285,1.713,1.713,0,0,0-.56.53,1.656,1.656,0,0,0-.25.83h1.42Zm1.86,1.58a2.643,2.643,0,0,1-.025.32,1.047,1.047,0,0,1-.135.395,0.928,0.928,0,0,1-.34.335,1.254,1.254,0,0,1-.65.14,1.792,1.792,0,0,1-.33-0.03,0.807,0.807,0,0,1-.28-0.105,0.539,0.539,0,0,1-.19-0.2,0.676,0.676,0,0,1-.07-0.32,0.7,0.7,0,0,1,.07-0.33,0.654,0.654,0,0,1,.185-0.215A0.943,0.943,0,0,1,197.2,87a2.633,2.633,0,0,1,.315-0.08c0.114-.02.227-0.037,0.34-0.05s0.222-.03.325-0.05a2.269,2.269,0,0,0,.29-0.075,0.636,0.636,0,0,0,.225-0.125v0.53Z" transform="translate(-185 -76)"/>
</svg>
