<svg xmlns="http://www.w3.org/2000/svg" width="100" height="41" viewBox="0 0 100 41">
  <defs>
    <style>
      .cls-1 {
        fill: #ed9b4d;
        fill-rule: evenodd;
      }
    </style>
  </defs>
  <path id="logo.svg" class="cls-1" d="M37.3,31.327a7.109,7.109,0,1,0,5.022,2.092A7.08,7.08,0,0,0,37.3,31.327h0Zm5.308,5a10.021,10.021,0,0,0-2.479-.731,10.165,10.165,0,0,0-.687-2.477A5.777,5.777,0,0,1,42.61,36.322Zm-2.28,3.526c0.041-.469.062-0.952,0.062-1.428a11.028,11.028,0,0,0-.062-1.428c1.758,0.38,2.692,1.035,2.692,1.428S42.088,39.5,40.33,39.848ZM37.3,44.2c-0.391,0-1.044-.938-1.421-2.7q0.687,0.062,1.421.062a10.837,10.837,0,0,0,1.422-.062C38.346,43.257,37.7,44.2,37.3,44.2Zm0-4.023a10.28,10.28,0,0,1-1.634-.083c-0.048-.5-0.082-1.049-0.082-1.642s0.034-1.132.082-1.642c0.508-.048,1.044-0.083,1.634-0.083s1.133,0.035,1.634.083c0.048,0.511.082,1.049,0.082,1.642s-0.034,1.139-.082,1.642C38.435,40.138,37.892,40.172,37.3,40.172Zm-5.713-1.7c0-.393.934-1.049,2.685-1.428-0.034.476-.062,0.952-0.062,1.428a10.993,10.993,0,0,0,.062,1.428C32.522,39.5,31.588,38.847,31.588,38.468ZM37.3,32.727c0.4,0,1.044.931,1.422,2.7-0.467-.035-0.948-0.062-1.422-0.062a10.888,10.888,0,0,0-1.421.062c0.378-1.787,1.03-2.719,1.421-2.719v0.021Zm-2.115.407a10.21,10.21,0,0,0-.728,2.477,10.1,10.1,0,0,0-2.465.731,5.8,5.8,0,0,1,3.193-3.229v0.021Zm-3.193,7.438a10.1,10.1,0,0,0,2.465.738,10.261,10.261,0,0,0,.728,2.47,5.777,5.777,0,0,1-3.193-3.209h0Zm7.451,3.209a10.3,10.3,0,0,0,.687-2.47,10.136,10.136,0,0,0,2.458-.738,5.753,5.753,0,0,1-3.145,3.209h0ZM37.3,27.635A10.776,10.776,0,0,0,26.563,37.894a10.844,10.844,0,0,0,2.58,7.585l-0.982,3.643a0.689,0.689,0,0,0,.687.87h0.179l4.807-1.3a10.759,10.759,0,0,0,14.052-8.482A10.8,10.8,0,0,0,37.3,27.635h0Zm0,20.252a9.255,9.255,0,0,1-3.214-.587,0.7,0.7,0,0,0-.419,0L29.83,48.328l0.762-2.857a0.689,0.689,0,0,0-.158-0.642,9.451,9.451,0,0,1,2.477-14.673,9.368,9.368,0,0,1,13.54,6.029,9.415,9.415,0,0,1-9.151,11.7h0ZM62.936,20.528a7.153,7.153,0,0,0-2.065-5.049,7.154,7.154,0,1,0,2.065,5.049h0Zm-8.515,3.043q0.687,0.062,1.421.062a10.836,10.836,0,0,0,1.422-.062c-0.378,1.766-1.023,2.7-1.422,2.7s-1.044-.959-1.421-2.726v0.021Zm-4.292-3.043c0-.393.934-1.049,2.685-1.428,0,0.476-.062.952-0.062,1.428a10.975,10.975,0,0,0,.062,1.428C51.063,21.556,50.129,20.907,50.129,20.528Zm4,0a10.429,10.429,0,0,1,.082-1.642c0.508-.048,1.044-0.083,1.634-0.083s1.133,0.034,1.634.083c0.048,0.511.082,1.049,0.082,1.642s-0.034,1.139-.082,1.642c-0.5.048-1.044,0.083-1.634,0.083a10.28,10.28,0,0,1-1.634-.083C54.16,21.646,54.126,21.1,54.126,20.528Zm1.717-5.741c0.4,0,1.044.932,1.422,2.7-0.467-.035-0.948-0.062-1.422-0.062a10.887,10.887,0,0,0-1.421.062c0.378-1.787,1.03-2.719,1.421-2.719v0.021Zm5.721,5.741c0,0.4-.934,1.049-2.692,1.428,0.041-.469.062-0.952,0.062-1.428a11.047,11.047,0,0,0-.062-1.428C60.629,19.458,61.563,20.114,61.563,20.528Zm-3.578,5.313a10.287,10.287,0,0,0,.687-2.47,10.137,10.137,0,0,0,2.459-.738,5.753,5.753,0,0,1-3.145,3.208h0Zm3.193-7.459a10,10,0,0,0-2.507-.731,10.165,10.165,0,0,0-.687-2.477,5.777,5.777,0,0,1,3.166,3.209h0.028Zm-7.451-3.209A10.21,10.21,0,0,0,53,17.65a10.088,10.088,0,0,0-2.465.731A5.8,5.8,0,0,1,53.728,15.173Zm-3.193,7.459A10.1,10.1,0,0,0,53,23.371a10.257,10.257,0,0,0,.728,2.47,5.777,5.777,0,0,1-3.193-3.209h0Zm8.824,8.1,4.807,1.3a0.773,0.773,0,0,0,.179,0,0.689,0.689,0,0,0,.687-0.869l-0.968-3.643a10.925,10.925,0,0,0-4.405-17.288,10.8,10.8,0,0,0-9.938,1.183,10.893,10.893,0,0,0,9.639,19.32h0Zm-12.9-10.205a9.452,9.452,0,0,1,4.082-7.814,9.382,9.382,0,0,1,14.467,5.668,9.47,9.47,0,0,1-2.261,8.528,0.688,0.688,0,0,0-.151.642l0.755,2.857-3.873-1.042a0.519,0.519,0,0,0-.178,0,0.683,0.683,0,0,0-.233.041,9.315,9.315,0,0,1-8.623-1.114,9.412,9.412,0,0,1-3.985-7.766h0Zm20.072,14.2a14.135,14.135,0,0,1-12.409,13.8,0.679,0.679,0,0,1-.46,1.18,0.672,0.672,0,0,1-.371-0.11L51.7,48.577l-0.048-.048a0.368,0.368,0,0,1-.1-0.1,0.419,0.419,0,0,1-.069-0.1,0.472,0.472,0,0,1-.055-0.124V48.128a0.185,0.185,0,0,1,0-.062V47.928a0.632,0.632,0,0,1,.082-0.262V47.6l1.057-1.546a0.69,0.69,0,1,1,1.133.787l-0.268.38a12.732,12.732,0,0,0,11.729-12.5,0.687,0.687,0,1,1,1.374,0h0ZM26.7,24.668a0.688,0.688,0,0,1-.687-0.69,14.135,14.135,0,0,1,12.409-13.8,0.693,0.693,0,0,1-.046-0.9A0.684,0.684,0,0,1,39.259,9.1l1.593,1.021a0.061,0.061,0,0,0,.048.055,0.689,0.689,0,0,1,.1.1l0.069,0.1a0.72,0.72,0,0,1,.055.131v0.062a0.229,0.229,0,0,0,0,.069v0.138a0.844,0.844,0,0,1,0,.131,0.723,0.723,0,0,1-.055.131V11.1L39.98,12.641a0.676,0.676,0,0,1-1.1-.787l0.261-.38a12.8,12.8,0,0,0-11.757,12.5,0.687,0.687,0,0,1-.687.69h0ZM78.05,28.7V18.785h2.322V28.7H78.05Zm0-11.5V15.268h2.322v1.939H78.05Zm5.857,11.5V17.43a3.888,3.888,0,0,1-.4.154q-0.3.1-.657,0.2t-0.657.18a3.991,3.991,0,0,0-.418.137V16.332q0.239-.086.6-0.24t0.76-.352a6.022,6.022,0,0,0,.751-0.437,2.967,2.967,0,0,0,.572-0.5h1.81V28.7H83.907Zm8.469,0.189a3.775,3.775,0,0,1-2.117-.532,2.9,2.9,0,0,1-1.144-1.484,6.519,6.519,0,0,1-.341-2.2,5.168,5.168,0,0,1,.111-1.107,3.714,3.714,0,0,1,.324-0.918,3.075,3.075,0,0,1,.521-0.729,2.739,2.739,0,0,1,.7-0.523A3.469,3.469,0,0,1,89.4,20.218a3.967,3.967,0,0,1-.435-1.9,4.838,4.838,0,0,1,.367-1.965,2.651,2.651,0,0,1,1.136-1.27,3.818,3.818,0,0,1,1.912-.437,3.7,3.7,0,0,1,1.913.446,2.729,2.729,0,0,1,1.118,1.27,4.6,4.6,0,0,1,.35,1.956,4.1,4.1,0,0,1-.418,1.9,3.331,3.331,0,0,1-1.016,1.167,2.739,2.739,0,0,1,.7.523,3.075,3.075,0,0,1,.521.729,3.714,3.714,0,0,1,.324.918,5.168,5.168,0,0,1,.111,1.107,6.128,6.128,0,0,1-.333,2.2A2.962,2.962,0,0,1,94.5,28.359,3.766,3.766,0,0,1,92.376,28.891Zm0-1.8a1.03,1.03,0,0,0,.845-0.343,1.791,1.791,0,0,0,.367-0.866,6.653,6.653,0,0,0,.085-1.072,5.207,5.207,0,0,0-.085-1.124A1.934,1.934,0,0,0,93.2,22.8a1.009,1.009,0,0,0-.828-0.343,0.989,0.989,0,0,0-.811.343,2,2,0,0,0-.393.875,5.544,5.544,0,0,0-.111,1.132,6.2,6.2,0,0,0,.094,1.081,1.759,1.759,0,0,0,.384.866A1.048,1.048,0,0,0,92.376,27.089Zm0-6.64a0.9,0.9,0,0,0,.675-0.3,1.68,1.68,0,0,0,.35-0.781,5.655,5.655,0,0,0,.1-1.132,2.81,2.81,0,0,0-.256-1.287,0.9,0.9,0,0,0-.871-0.5,0.941,0.941,0,0,0-.879.5,2.555,2.555,0,0,0-.282,1.27,5.346,5.346,0,0,0,.111,1.141,1.7,1.7,0,0,0,.367.789A0.93,0.93,0,0,0,92.376,20.449ZM97.618,28.7V18.785H99.94v1a5.049,5.049,0,0,1,1.118-.832,2.643,2.643,0,0,1,1.273-.317,1.47,1.47,0,0,1,.973.3,1.759,1.759,0,0,1,.529.8A3.306,3.306,0,0,1,104,20.81V28.7h-2.322V21.273a1.407,1.407,0,0,0-.137-0.686,0.554,0.554,0,0,0-.529-0.24,1.2,1.2,0,0,0-.521.137,3.383,3.383,0,0,0-.555.343V28.7H97.618Zm-18,16.142a3.091,3.091,0,0,1-2.049-.669,3.69,3.69,0,0,1-1.144-1.956l1.724-.669a3.284,3.284,0,0,0,.547,1.235,1.082,1.082,0,0,0,.888.429,0.832,0.832,0,0,0,.615-0.206,0.767,0.767,0,0,0,.2-0.566,1.224,1.224,0,0,0-.248-0.746,5.328,5.328,0,0,0-.845-0.832l-1.2-1.012a6.1,6.1,0,0,1-1.05-1.158,2.587,2.587,0,0,1-.4-1.484,2.512,2.512,0,0,1,.367-1.381,2.469,2.469,0,0,1,1.007-.892,3.167,3.167,0,0,1,1.426-.317,2.625,2.625,0,0,1,1.921.712,3.352,3.352,0,0,1,.931,1.862l-1.52.652a3.519,3.519,0,0,0-.248-0.764,1.683,1.683,0,0,0-.418-0.575,0.882,0.882,0,0,0-.6-0.223,0.755,0.755,0,0,0-.572.223,0.786,0.786,0,0,0-.213.566,0.97,0.97,0,0,0,.248.6,5.506,5.506,0,0,0,.709.7l1.212,1.1a9.145,9.145,0,0,1,.751.738,3.763,3.763,0,0,1,.6.884,2.529,2.529,0,0,1,.239,1.124,2.564,2.564,0,0,1-.384,1.441,2.425,2.425,0,0,1-1.042.884,3.472,3.472,0,0,1-1.46.3h0ZM83.8,44.69v-13.9h2.322v4.924a4.055,4.055,0,0,1,1.118-.806,3.011,3.011,0,0,1,1.323-.292,1.441,1.441,0,0,1,.956.3,1.756,1.756,0,0,1,.529.8,3.308,3.308,0,0,1,.171,1.081V44.69H87.9V37.261a1.407,1.407,0,0,0-.137-0.686,0.555,0.555,0,0,0-.529-0.24,1.309,1.309,0,0,0-.538.137,2.659,2.659,0,0,0-.572.36V44.69H83.8Zm10.04,0.154a1.877,1.877,0,0,1-1.144-.352,2.327,2.327,0,0,1-.734-0.892,2.594,2.594,0,0,1-.256-1.124,3.089,3.089,0,0,1,1.247-2.625,6.339,6.339,0,0,1,1.281-.746q0.717-.317,1.451-0.575V37.673a3.668,3.668,0,0,0-.06-0.721,0.827,0.827,0,0,0-.222-0.446,0.709,0.709,0,0,0-.5-0.154,0.694,0.694,0,0,0-.726.523,2.377,2.377,0,0,0-.094.575l-0.034.6-2.2-.086a3.674,3.674,0,0,1,.845-2.531,3.234,3.234,0,0,1,2.416-.815,2.634,2.634,0,0,1,2.16.824,3.416,3.416,0,0,1,.674,2.23v4.581q0,0.549.026,1t0.068,0.806q0.043,0.36.077,0.635H96.023q-0.051-.343-0.128-0.781t-0.111-.643a2.543,2.543,0,0,1-.649,1.09,1.731,1.731,0,0,1-1.3.489h0Zm0.854-1.733A0.833,0.833,0,0,0,95.109,43a1.617,1.617,0,0,0,.35-0.266,1.379,1.379,0,0,0,.222-0.274V39.7q-0.376.223-.709,0.446a3.291,3.291,0,0,0-.581.489,1.925,1.925,0,0,0-.376.575,1.871,1.871,0,0,0-.128.721,1.535,1.535,0,0,0,.213.866,0.673,0.673,0,0,0,.589.317h0Zm4.952,1.578V34.773h2.237v0.858a3.209,3.209,0,0,1,1.109-.8,3.133,3.133,0,0,1,1.213-.249,1.784,1.784,0,0,1,1.016.292,1.692,1.692,0,0,1,.64.926,3.5,3.5,0,0,1,1.195-.935,3.142,3.142,0,0,1,1.3-.283,1.685,1.685,0,0,1,.939.266,1.8,1.8,0,0,1,.649.789,3.167,3.167,0,0,1,.239,1.313V44.69h-2.22V37.158a1.206,1.206,0,0,0-.188-0.781,0.665,0.665,0,0,0-.529-0.215,1.458,1.458,0,0,0-.606.155,2.093,2.093,0,0,0-.606.429V44.69h-2.2V37.158a1.171,1.171,0,0,0-.2-0.781,0.693,0.693,0,0,0-.538-0.215,1.408,1.408,0,0,0-.6.155,2.385,2.385,0,0,0-.614.429V44.69H99.643Zm14.172,0.154a1.877,1.877,0,0,1-1.144-.352,2.327,2.327,0,0,1-.734-0.892,2.591,2.591,0,0,1-.256-1.124,3.087,3.087,0,0,1,1.246-2.625,6.354,6.354,0,0,1,1.281-.746q0.717-.317,1.451-0.575V37.673a3.651,3.651,0,0,0-.06-0.721,0.815,0.815,0,0,0-.222-0.446,0.708,0.708,0,0,0-.5-0.154,0.694,0.694,0,0,0-.726.523,2.367,2.367,0,0,0-.094.575l-0.034.6-2.2-.086a3.675,3.675,0,0,1,.845-2.531,3.237,3.237,0,0,1,2.417-.815,2.634,2.634,0,0,1,2.16.824,3.42,3.42,0,0,1,.674,2.23v4.581q0,0.549.026,1c0.017,0.3.039,0.566,0.068,0.806s0.054,0.452.077,0.635H116c-0.035-.229-0.077-0.489-0.128-0.781s-0.089-.506-0.111-0.643a2.552,2.552,0,0,1-.649,1.09,1.733,1.733,0,0,1-1.3.489h0Zm0.854-1.733A0.832,0.832,0,0,0,115.087,43a1.6,1.6,0,0,0,.35-0.266,1.344,1.344,0,0,0,.222-0.274V39.7c-0.25.149-.487,0.3-0.708,0.446a3.29,3.29,0,0,0-.581.489,1.938,1.938,0,0,0-.376.575,1.879,1.879,0,0,0-.128.721,1.53,1.53,0,0,0,.214.866,0.672,0.672,0,0,0,.589.317h0Zm4.952,1.578V34.773h2.322v1a5.026,5.026,0,0,1,1.118-.832,2.642,2.642,0,0,1,1.272-.317,1.47,1.47,0,0,1,.974.3,1.758,1.758,0,0,1,.529.8,3.305,3.305,0,0,1,.171,1.081V44.69h-2.323V37.261a1.408,1.408,0,0,0-.136-0.686,0.555,0.555,0,0,0-.529-0.24,1.2,1.2,0,0,0-.521.137,3.383,3.383,0,0,0-.555.343V44.69h-2.322Z" transform="translate(-26 -9)"/>
</svg>
